<svg width="16" height="15" viewBox="0 0 16 15" fill="none" xmlns="http://www.w3.org/2000/svg">
<path d="M15 7C15 8.93333 14.3166 10.5667 12.95 11.9C11.6166 13.3 9.96667 14 8 14C6.06667 14 4.41665 13.3 3.04999 11.9C1.68332 10.5667 1 8.93333 1 7C1 5.03333 1.68332 3.36667 3.04999 2C4.41665 0.666667 6.06667 0 8 0C9.96667 0 11.6166 0.666667 12.95 2C14.3166 3.36667 15 5.03333 15 7Z" fill="white"/>
<path d="M15 6.99991C14.6 8.66658 14.0666 9.86658 13.4 10.5999C12.7333 11.3332 11.7667 12.0333 10.5 12.6999C9.23333 13.3999 7.96662 13.5666 6.69995 13.1999C5.46662 12.8333 4.51664 12.3832 3.84998 11.8499C3.18331 11.3166 2.63328 10.2999 2.19995 8.7999C1.79995 7.2999 1.74999 6.06658 2.04999 5.09991C2.38332 4.16658 3.03333 3.28325 4 2.44992C5 1.61659 6.08333 1.18324 7.25 1.1499L10.7 1.3999C11.8666 1.5999 12.65 1.93324 13.05 2.3999C13.45 2.8999 14.1 4.43324 15 6.99991Z" stroke="#2A2A2A" stroke-width="2" stroke-linecap="round" stroke-linejoin="round"/>
</svg>
