<svg width="64" height="63" viewBox="0 0 64 63" fill="none" xmlns="http://www.w3.org/2000/svg">
<path d="M61.5361 1.6001V61.6001H1.53613V1.6001H61.5361Z" fill="white"/>
<path d="M2.16547 9.6501H5.53611C6.83611 9.5501 8.15278 9.56677 9.48611 9.7001L13.9861 9.80009L17.9861 9.6501H21.8861H26.1861L29.3861 9.9001L32.8361 10.0001L36.9361 9.50009L40.9361 9.3501L45.4361 9.50009L49.7361 9.4501L53.9861 9.6501L57.3361 9.75009L61 9.5" stroke="#B2B7BB" stroke-width="2" stroke-linecap="round" stroke-linejoin="round"/>
<path d="M1.53611 1.60001L5.73611 1.55H9.78611L13.5361 1.70001L17.5361 1.40001L21.2361 1L25.3361 1.3L30.0861 1.8L33.9861 1.85001L37.5361 1.60001L41.4861 1.55L45.7361 1.20001L49.4361 1.3L52.8361 1.5L56.6361 1.3L61.5361 1.60001C61.5361 2.93334 61.4028 4.15 61.1361 5.25C60.9028 6.35 60.8861 7.76667 61.0861 9.5C61.3195 11.2667 61.4194 12.55 61.3861 13.35L61.5861 17.4L61.6361 21.9L61.6861 25.5L62.1361 29.35C62.3361 30.65 62.3861 32 62.2861 33.4L61.6361 37.6C61.2694 39.0333 61.1528 40.2833 61.2861 41.35L61.5861 45.25C61.6195 46.8167 61.5028 48.3 61.2361 49.7C60.9694 51.1333 60.9195 52.5167 61.0861 53.85C61.2528 55.1833 61.2528 56.05 61.0861 56.45C60.9528 56.8833 61.1028 58.6 61.5361 61.6L57.3361 61.7L53.3361 62L49.3361 61.75L45.6861 61.55L41.6361 61.35L37.7361 61.2L33.4361 61.65L28.9861 61.9L24.9361 61.65L21.1361 61.95L17.3861 61.75L13.4861 61.6L9.53611 61.8L6.83611 61.6H1.53611C1.20278 60.6667 1.10278 59.5 1.23611 58.1L1.18611 53.5C1.05278 51.8333 1.11944 50.4333 1.38611 49.3L2.08611 45.9C2.28611 44.7333 2.23611 43.4 1.93611 41.9C1.66945 40.4 1.53611 38.8167 1.53611 37.15C1.53611 35.5167 1.40278 34.2 1.13611 33.2C0.902778 32.2333 0.969445 31.05 1.33611 29.65C1.70278 28.2833 1.88611 26.9667 1.88611 25.7L1.78611 21.8L1.48611 17.65L1.28611 13.75C1.28611 12.55 1.45278 11.2167 1.78611 9.75C2.15278 8.31667 2.20278 7.38335 1.93611 6.95001C1.66945 6.55001 1.53611 4.76667 1.53611 1.60001Z" stroke="#2A2A2A" stroke-width="2" stroke-linecap="round" stroke-linejoin="round"/>
</svg>
