<svg width="64" height="63" viewBox="0 0 64 63" fill="none" xmlns="http://www.w3.org/2000/svg">
<path d="M61.6154 1.27502V61.275H1.61536V1.27502H61.6154Z" fill="white"/>
<path d="M61.6154 61.275H57.1154L53.1654 61.625C52.1321 61.7917 50.932 61.775 49.5654 61.575L45.3654 61.175L41.3654 61.575L37.5654 61.675L33.3154 61.225H29.1154L25.2154 61.275H21.4154L17.2654 61.225L13.2654 61.275L9.11538 61.325L6.11538 61.375L1.61538 61.275C1.38205 59.3083 1.33205 57.725 1.46538 56.525C1.59872 55.3583 1.51538 54.0917 1.21538 52.725C0.948715 51.3583 0.948715 50.1417 1.21538 49.075C1.48205 48.0417 1.68205 46.8083 1.81538 45.375C1.94872 43.975 1.83205 42.475 1.46538 40.875C1.09872 39.3083 0.948718 37.9917 1.01538 36.925C1.11538 35.8917 1.34872 34.7083 1.71538 33.375C2.11538 32.0417 2.16538 30.5417 1.86538 28.875C1.59872 27.2417 1.54872 26.0083 1.71538 25.175L1.96538 21.525L1.81538 17.575C1.71538 16.5083 1.71538 15.1917 1.81538 13.625C1.94872 12.0583 1.93205 10.625 1.76538 9.325L1.51538 6.475L1.61538 1.275L5.36538 1.375L9.46538 1.325L13.7654 1.525C15.1654 1.725 16.3321 1.725 17.2654 1.525L21.3154 1.175L25.7654 1.025L29.1654 1.275L33.6154 1.475L38.0654 1.075C39.0654 0.975 40.1987 0.975 41.4654 1.075L45.4154 1.025L49.9654 1.475L54.0654 2.125L56.6154 1.675L61.6154 1.275L61.4654 5.525C61.332 6.85833 61.3987 8.15834 61.6654 9.425C61.9321 10.725 61.982 12.0917 61.8154 13.525L61.4654 17.475L61.1654 20.925C61.0321 22.025 61.1154 23.4917 61.4154 25.325C61.7154 27.1583 61.782 28.6417 61.6154 29.775C61.482 30.9083 61.4487 32.175 61.5154 33.575C61.5821 34.975 61.6987 36.225 61.8654 37.325L62.2654 41.025L62.2154 45.225L61.9654 49.375C61.8987 50.6417 61.982 51.925 62.2154 53.225C62.482 54.5583 62.5154 55.4417 62.3154 55.875C62.1487 56.3417 61.9154 58.1417 61.6154 61.275Z" stroke="#2A2A2A" stroke-width="2" stroke-linecap="round" stroke-linejoin="round"/>
</svg>
