<svg width="60" height="32" viewBox="0 0 60 32" fill="none" xmlns="http://www.w3.org/2000/svg">
<path d="M48.5021 23.75H41.0521V29.75H33.0521V23.75H13.7021L6.6521 30.8L1.00208 25.15L8.75208 17.4V11.2L14.952 5H43.0021V1H48.5021V8.75H58.5021V18.75H48.5021V23.75Z" fill="white"/>
<path d="M43.0021 5L46.1521 5.25L48.5021 5M48.5021 18.75C48.9021 17.45 48.9854 16.25 48.7521 15.15C48.5188 14.05 48.4354 13.2 48.5021 12.6V8.75M41.0521 23.75C39.7188 23.75 38.8187 23.9167 38.3521 24.25C37.8854 24.5833 36.1188 24.4167 33.0521 23.75M31.6021 10.75L35.8021 10.45L39.2521 10.55L41.6021 10.75L41.5521 14.25L41.6021 18.75L37.6021 19L34.5521 18.65L31.6021 18.75C31.3021 17.15 31.2187 16.05 31.3521 15.45L31.6021 10.75Z" stroke="#B2B7BB" stroke-width="2" stroke-linecap="round" stroke-linejoin="round"/>
<path d="M58.5021 13.75C58.8021 13.0167 58.8687 12.1667 58.702 11.2L58.5021 8.75C57.3687 8.18333 56.4688 8.05 55.8021 8.35L52.8021 8.7C51.4688 8.6 50.0354 8.61667 48.5021 8.75C48.6354 6.78333 48.6354 5.35 48.5021 4.45C48.3687 3.55 48.3687 2.4 48.5021 1C47.0687 1 46.0354 1.16667 45.4021 1.5C44.7688 1.83333 43.9687 1.66667 43.0021 1L42.8021 2.45L42.2521 5L38.5521 4.9L35.452 4.85L30.702 4.95L26.2521 4.75C24.9854 4.61667 23.6521 4.61667 22.2521 4.75L18.5021 4.85L14.952 5C14.652 5.8 14.3354 6.25 14.0021 6.35L11.8521 8.25L8.75208 11.2C8.55208 12.7667 8.50206 13.85 8.60206 14.45L8.75208 17.4C7.61875 18.8 6.73539 19.6333 6.10206 19.9C5.50206 20.1667 4.7354 20.9 3.80207 22.1L1.00208 25.15C0.96875 25.6167 1.33539 26.0667 2.10206 26.5C2.86873 26.9667 3.60207 27.6667 4.30207 28.6C5.0354 29.5667 5.81877 30.3 6.65211 30.8C7.48544 29.7 8.15211 28.95 8.65211 28.55L10.7021 26.5C11.5354 25.5333 12.5354 24.6167 13.7021 23.75L18.5521 23.3C19.0521 23.0333 19.9188 23.1333 21.1521 23.6L24.8521 24.35L28.8521 24.1L33.0521 23.75C32.4521 25.15 32.4354 26.0167 33.0021 26.35C33.5687 26.7167 33.5855 27.85 33.0521 29.75L38.5021 30.2C39.3021 30.3333 40.1521 30.1833 41.0521 29.75C41.4521 29.0833 41.5521 28.25 41.3521 27.25C41.1521 26.25 41.0521 25.0833 41.0521 23.75H45.702H48.5021C48.4354 23.5833 48.5187 23.05 48.7521 22.15C48.9854 21.25 48.9021 20.1167 48.5021 18.75L51.5021 18.95L54.8021 19.45C56.3688 19.5833 57.6021 19.35 58.5021 18.75C58.1687 18.2833 58.0854 17.6667 58.2521 16.9L58.5021 13.75ZM58.5021 13.75L54.2521 13.9L50.8021 14.15C50.0021 14.25 49.2354 14.1167 48.5021 13.75" stroke="#2A2A2A" stroke-width="2" stroke-linecap="round" stroke-linejoin="round"/>
</svg>
