<svg width="42" height="64" viewBox="0 0 42 64" fill="none" xmlns="http://www.w3.org/2000/svg">
<path d="M1.75293 1.8501H39.7529V61.8501H1.75293V1.8501ZM34.7529 6.8501H6.75293V56.8501H34.7529V6.8501Z" fill="white"/>
<path d="M34.7529 6.8501V56.8501H6.75293V6.8501H34.7529Z" fill="#FC5C65"/>
<path d="M39.7529 1.85001C40.2529 3.18334 40.2863 4.38335 39.8529 5.45001C39.4196 6.55001 39.3196 7.86666 39.5529 9.39999C39.8196 10.9667 39.9696 12.5333 40.0029 14.1C40.0363 15.7 39.8363 17 39.4029 18C39.0029 19 39.0863 20.1 39.6529 21.3C40.2529 22.5334 40.4029 23.9333 40.1029 25.5C39.8029 27.0667 39.8029 28.4833 40.1029 29.75C40.4363 31.0167 40.5696 32.2667 40.5029 33.5L40.0529 37.8C39.8196 39.4 39.6863 40.7667 39.6529 41.9C39.6529 43.0667 39.7863 44.45 40.0529 46.05C40.3196 47.65 40.3363 49 40.1029 50.1L39.6529 53.35V56.4L39.7529 61.85H35.5529L32.0029 62.25L28.3529 62.45L24.1529 61.95L20.4029 62.2L16.0029 62.55L11.6529 62.2C10.3863 62.1 9.05294 62.1167 7.65294 62.25L4.45295 62.15L1.75294 61.85C1.21961 61.0833 0.969608 59.7833 1.00294 57.95L1.40294 53.55C1.63627 52.45 1.63627 51.35 1.40294 50.25C1.20294 49.15 1.23627 47.8833 1.50294 46.45C1.80294 45.05 1.83628 43.5834 1.60295 42.05C1.40295 40.5167 1.51962 38.9833 1.95295 37.45C2.38629 35.95 2.4196 34.5833 2.05293 33.35C1.7196 32.1167 1.48628 30.8833 1.35295 29.65L1.20295 26.05L1.10295 22.55C1.03628 21.3834 1.06962 19.9667 1.20295 18.3L1.75294 13.35L2.10295 9.14999C2.13628 8.01666 2.01961 7.15002 1.75294 6.55002C1.48627 5.98335 1.48627 4.41667 1.75294 1.85001L5.40294 1.60001L9.40294 1.45001L13.3029 1.64999L17.203 1.45001L21.6529 1L26.203 1.39999L30.203 1.80002L34.203 1.70001L37.6529 1.89999L39.7529 1.85001Z" stroke="#2A2A2A" stroke-width="2" stroke-linecap="round" stroke-linejoin="round"/>
<path d="M18.803 27.6C18.803 28.1334 18.603 28.5834 18.203 28.95C17.8363 29.35 17.3696 29.55 16.803 29.55C16.2363 29.55 15.753 29.35 15.353 28.95C14.9863 28.5834 14.803 28.1334 14.803 27.6C14.803 27.0334 14.9863 26.55 15.353 26.15C15.753 25.75 16.2363 25.55 16.803 25.55C17.3696 25.55 17.8363 25.75 18.203 26.15C18.603 26.55 18.803 27.0334 18.803 27.6ZM31.803 27.6C31.803 28.1334 31.6197 28.5834 31.253 28.95C30.853 29.35 30.3696 29.55 29.803 29.55C29.2696 29.55 28.7863 29.35 28.353 28.95C27.9863 28.5834 27.803 28.1334 27.803 27.6C27.803 27.0334 27.9863 26.55 28.353 26.15C28.7863 25.75 29.2696 25.55 29.803 25.55C30.3696 25.55 30.853 25.75 31.253 26.15C31.6197 26.55 31.803 27.0334 31.803 27.6ZM27.653 34.75C26.4863 35.95 25.0363 36.55 23.303 36.55C21.5363 36.55 20.053 35.9334 18.853 34.7L18.003 33.65C17.803 33.3167 17.753 32.9667 17.853 32.6C17.953 32.2667 18.153 32 18.453 31.8C18.753 31.5667 19.103 31.5 19.503 31.6C19.8363 31.7 20.103 31.9 20.303 32.2L20.753 32.8C21.453 33.5 22.303 33.85 23.303 33.85C24.2696 33.85 25.103 33.5 25.803 32.8L25.853 32.75L26.303 32.2C26.503 31.9 26.7863 31.7 27.153 31.6L28.153 31.8L28.753 32.6C28.853 32.9667 28.7863 33.3167 28.553 33.65L27.753 34.65L27.653 34.75Z" fill="white"/>
</svg>
