<svg width="36" height="36" viewBox="0 0 36 36" fill="none" xmlns="http://www.w3.org/2000/svg">
<circle cx="18" cy="18" r="16.25" stroke="white" stroke-width="3.5"/>
<path d="M18 25C16.0458 25 14.3906 24.3219 13.0344 22.9656C11.6781 21.6094 11 19.9542 11 18C11 16.0458 11.6781 14.3906 13.0344 13.0344C14.3906 11.6781 16.0458 11 18 11C19.0062 11 19.9688 11.2078 20.8875 11.6234C21.8063 12.0391 22.5938 12.6333 23.25 13.4062V11H25V17.125H18.875V15.375H22.55C22.0833 14.5583 21.4453 13.9167 20.6359 13.45C19.8266 12.9833 18.9479 12.75 18 12.75C16.5417 12.75 15.3021 13.2604 14.2812 14.2812C13.2604 15.3021 12.75 16.5417 12.75 18C12.75 19.4583 13.2604 20.6979 14.2812 21.7188C15.3021 22.7396 16.5417 23.25 18 23.25C19.1229 23.25 20.1365 22.9292 21.0406 22.2875C21.9448 21.6458 22.5792 20.8 22.9438 19.75H24.7812C24.3729 21.2958 23.5417 22.5573 22.2875 23.5344C21.0333 24.5115 19.6042 25 18 25Z" fill="white"/>
</svg>
